<svg xmlns="http://www.w3.org/2000/svg" viewBox="0 0 50.27 31.83"><defs><style>.cls-1{fill:#231f20;}</style></defs><g id="Layer_2" data-name="Layer 2"><g id="Layer_1-2" data-name="Layer 1"><path class="cls-1" d="M26.47,18.48A13.21,13.21,0,0,1,14.93,31.72C4.26,33.08-3.58,21.44,1.68,12.05c5.08-9.36,19-9,23.46.69-4.65-9.17-18-9.41-22.86-.36A12.85,12.85,0,0,0,6.1,28.85c8.36,6,20.21-.1,20.37-10.37Z"/><path class="cls-1" d="M23.81,18.48c.07,9.25-11.34,14.08-18,7.57a10.67,10.67,0,0,1,0-15.14c6.62-6.52,18-1.69,18,7.57Zm0,0c0-9.1-11.2-13.63-17.51-7.12a10.24,10.24,0,0,0,0,14.24c6.31,6.51,17.5,2,17.51-7.12Z"/><path class="cls-1" d="M23.81,18.48A13.18,13.18,0,0,1,35.34,5.24C46,3.88,53.85,15.51,48.6,24.9c-5.08,9.36-19,9-23.46-.68,4.65,9.17,18,9.4,22.86.35A12.86,12.86,0,0,0,44.17,8.1c-8.36-6-20.21.11-20.36,10.38Z"/><path class="cls-1" d="M47.24,18.48c.07,9.25-11.34,14.08-18,7.57a10.68,10.68,0,0,1,0-15.14c6.62-6.52,18-1.69,18,7.57Zm0,0c0-9.1-11.2-13.63-17.51-7.12a10.24,10.24,0,0,0,0,14.24c6.31,6.51,17.5,2,17.51-7.12Z"/><path class="cls-1" d="M30,6c-1.21-.45-3.42-1.35-4.62-1.85.11-.89.19-1.78.31-2.66C26.56,1,27.4.55,28.25.09L28.41,0c.83.35,1.63.75,2.44,1.12C30.66,2.4,30.27,4.76,30,6Zm0,0c.06-1.47.09-3.3.16-4.75l.19.32C29.68,1.31,29,1,28.29.74l.32,0c-.78.46-1.58.9-2.38,1.34l.19-.27c-.11.75-.24,1.49-.36,2.23l-.17-.32C27.17,4.39,28.74,5.31,30,6Z"/><path class="cls-1" d="M19.76,6.23C19.48,5,19,2.61,18.8,1.34c.8-.4,1.59-.81,2.4-1.19.86.43,1.72.88,2.58,1.34l.16.09c.15.88.25,1.77.39,2.66-1.18.53-3.37,1.49-4.57,2Zm0,0C21,5.47,22.58,4.5,23.83,3.76l-.16.34c-.14-.74-.3-1.48-.42-2.22l.19.26c-.81-.41-1.62-.83-2.42-1.27h.33c-.68.32-1.38.61-2.07.92l.18-.33c.12,1.46.2,3.28.3,4.76Z"/></g></g></svg>